<svg xmlns="http://www.w3.org/2000/svg" width="24" height="25" viewBox="0 0 24 25" fill="none">
    <path
        d="M7.33456 15.5072C5.96578 15.7027 2.52483 15.2725 2.05554 11.9874C1.58624 8.70239 4.20647 7.88112 5.57524 7.88112C5.96614 6.12127 7.68653 2.60156 11.4409 2.60156C15.1952 2.60156 17.3071 4.94803 17.8937 6.12127C19.2624 6.31681 22 7.52915 22 10.8142C22 14.0993 17.6981 15.3116 16.1338 15.5072"
        stroke="#003E52" stroke-opacity="0.6" stroke-width="1.5" />
    <path d="M5.57422 12.5742L8.50731 15.5073L5.57422 18.4404" stroke="#003E52" stroke-opacity="0.6"
        stroke-width="1.5" stroke-linecap="round" />
    <path d="M17.8945 12.5742L14.9614 15.5073L17.8945 18.4404" stroke="#003E52" stroke-opacity="0.6"
        stroke-width="1.5" stroke-linecap="round" />
    <path d="M9.08984 11.0625L11.6845 8.46784L14.2792 11.0625" stroke="#003E52" stroke-opacity="0.6"
        stroke-width="1.5" stroke-linecap="round" />
    <path
        d="M12.3828 8.98438C12.3828 8.57016 12.047 8.23438 11.6328 8.23438C11.2186 8.23438 10.8828 8.57016 10.8828 8.98438H12.3828ZM10.8828 13.1358V13.8858H12.3828V13.1358H10.8828ZM10.8828 8.98438V13.1358H12.3828V8.98438H10.8828Z"
        fill="#003E52" fill-opacity="0.6" />
    <path d="M9.03906 19.3672L11.6337 21.9618L14.2284 19.3672" stroke="#003E52" stroke-opacity="0.6"
        stroke-width="1.5" stroke-linecap="round" />
    <path
        d="M12.3359 21.4414C12.3359 21.8556 12.0002 22.1914 11.5859 22.1914C11.1717 22.1914 10.8359 21.8556 10.8359 21.4414H12.3359ZM10.8359 17.29V16.54H12.3359V17.29H10.8359ZM10.8359 21.4414V17.29H12.3359V21.4414H10.8359Z"
        fill="#003E52" fill-opacity="0.6" />
</svg>