<svg width="120" height="120" viewBox="0 0 120 120" fill="none" xmlns="http://www.w3.org/2000/svg">
<path d="M90.7055 27.4453H35.7284C29.6501 27.4453 24.7227 32.3727 24.7227 38.451V81.5482C24.7227 87.6265 29.6501 92.5539 35.7284 92.5539H90.7055C96.7838 92.5539 101.711 87.6265 101.711 81.5482V38.451C101.711 32.3727 96.7838 27.4453 90.7055 27.4453Z" fill="#C1C2CD"/>
<path d="M84.2758 27.4453H29.2987C23.2204 27.4453 18.293 32.3727 18.293 38.451V81.5482C18.293 87.6265 23.2204 92.5539 29.2987 92.5539H84.2758C90.3541 92.5539 95.2815 87.6265 95.2815 81.5482V38.451C95.2815 32.3727 90.3541 27.4453 84.2758 27.4453Z" fill="#E7E7F0"/>
<path d="M63.3428 46.5209V73.7981H65.3799V73.7581L70.079 73.759V57.7314L65.3799 56.0962V53.0295L71.9913 55.3285C72.2774 55.5115 72.5172 55.7582 72.6921 56.0494C72.8669 56.3405 72.9719 56.6681 72.999 57.0066L73.0056 57.1781V73.7981H75.2418V76.6933H44.7656V73.799H46.9904V51.6657C46.9904 50.9057 47.3875 50.199 48.039 49.7962L59.9313 44.6514C61.4171 43.7333 63.3428 44.7885 63.3428 46.5209ZM60.4161 47.6L49.918 52.1419V73.7609H60.4161V61.6819L60.3971 61.6895V60.3504L60.4161 60.3962V54.8276L60.3971 54.8352V53.5019L60.4161 53.5447V47.6ZM58.4323 59.3628V62.4933L51.9047 65.1581V62.0276L58.4323 59.3628ZM58.4323 52.5181V55.6619L51.9047 58.4085V55.2647L58.4323 52.519V52.5181Z" fill="#C1C2CD"/>
</svg>
