<svg width="21" height="20" viewBox="0 0 21 20" fill="none" xmlns="http://www.w3.org/2000/svg">
<path d="M12.0895 3.01046V16.649H13.1445V16.629L15.578 16.6295V8.6157L13.1445 7.79808V6.26474L16.5684 7.41427C16.7165 7.50575 16.8407 7.62911 16.9313 7.77468C17.0218 7.92024 17.0762 8.08406 17.0902 8.25332L17.0937 8.33903V16.649H18.2517V18.0966H2.46875V16.6495H3.62091V5.58284C3.62091 5.20284 3.82658 4.84951 4.16394 4.64808L10.3228 2.0757C11.0922 1.61665 12.0895 2.14427 12.0895 3.01046ZM10.5738 3.54998L5.13706 5.82094V16.6305H10.5738V10.5909L10.5639 10.5947V9.92522L10.5738 9.94808V7.16379L10.5639 7.1676V6.50093L10.5738 6.52236V3.54998ZM9.54643 9.43141V10.9966L6.16591 12.329V10.7638L9.54643 9.43141ZM9.54643 6.00903V7.58094L6.16591 8.95427V7.38236L9.54643 6.00951V6.00903Z" fill="#632F00"/>
</svg>
