<svg xmlns="http://www.w3.org/2000/svg" width="24" height="25" viewBox="0 0 24 25" fill="none">
    <path
        d="M7.5 4.60156V9.10156M12 4.60156H4C3.46957 4.60156 2.96086 4.81228 2.58579 5.18735C2.21071 5.56242 2 6.07113 2 6.60156V15.6016C2 16.132 2.21071 16.6407 2.58579 17.0158C2.96086 17.3908 3.46957 17.6016 4 17.6016H6L9 20.6016H15L18 17.6016H20C20.5304 17.6016 21.0391 17.3908 21.4142 17.0158C21.7893 16.6407 22 16.132 22 15.6016V6.60156C22 6.07113 21.7893 5.56242 21.4142 5.18735C21.0391 4.81228 20.5304 4.60156 20 4.60156H16.5M12 4.60156V9.10156M12 4.60156H16.5M16.5 4.60156V9.10156"
        stroke="#003E52" stroke-opacity="0.6" stroke-width="2" stroke-linecap="round"
        stroke-linejoin="round" />
</svg>