<svg width="16" height="17" viewBox="0 0 16 17" fill="none" xmlns="http://www.w3.org/2000/svg">
<g clip-path="url(#clip0_1693_16613)">
<path d="M8 1.5C4.13437 1.5 1 4.63437 1 8.5C1 12.3656 4.13437 15.5 8 15.5C11.8656 15.5 15 12.3656 15 8.5C15 4.63437 11.8656 1.5 8 1.5ZM8 14.3125C4.79063 14.3125 2.1875 11.7094 2.1875 8.5C2.1875 5.29063 4.79063 2.6875 8 2.6875C11.2094 2.6875 13.8125 5.29063 13.8125 8.5C13.8125 11.7094 11.2094 14.3125 8 14.3125Z" fill="#8C8C8C"/>
<path d="M7.24976 5.75C7.24976 5.94891 7.32877 6.13968 7.46943 6.28033C7.61008 6.42098 7.80084 6.5 7.99976 6.5C8.19867 6.5 8.38943 6.42098 8.53009 6.28033C8.67074 6.13968 8.74976 5.94891 8.74976 5.75C8.74976 5.55109 8.67074 5.36032 8.53009 5.21967C8.38943 5.07902 8.19867 5 7.99976 5C7.80084 5 7.61008 5.07902 7.46943 5.21967C7.32877 5.36032 7.24976 5.55109 7.24976 5.75ZM8.37476 7.5H7.62476C7.55601 7.5 7.49976 7.55625 7.49976 7.625V11.875C7.49976 11.9438 7.55601 12 7.62476 12H8.37476C8.44351 12 8.49976 11.9438 8.49976 11.875V7.625C8.49976 7.55625 8.44351 7.5 8.37476 7.5Z" fill="#8C8C8C"/>
</g>
<defs>
<clipPath id="clip0_1693_16613">
<rect width="14" height="14" fill="white" transform="translate(1 1.5)"/>
</clipPath>
</defs>
</svg>
