<svg xmlns="http://www.w3.org/2000/svg" width="24" height="25" viewBox="0 0 24 25" fill="none">
    <path
        d="M12.75 18.7396V15.6016H11.25V18.7396C10.7496 18.9165 10.3278 19.2646 10.0593 19.7224C9.79072 20.1802 9.69265 20.7182 9.78241 21.2414C9.87216 21.7645 10.144 22.239 10.5498 22.5811C10.9556 22.9232 11.4692 23.1109 12 23.1109C12.5308 23.1109 13.0444 22.9232 13.4503 22.5811C13.8561 22.239 14.1278 21.7645 14.2176 21.2414C14.3074 20.7182 14.2093 20.1802 13.9407 19.7224C13.6722 19.2646 13.2504 18.9165 12.75 18.7396Z"
        fill="#003E52" fill-opacity="0.6" />
    <path
        d="M19.4995 9.60157C18.8362 9.60354 18.1923 9.8255 17.6687 10.2327C17.1451 10.6398 16.7713 11.2092 16.606 11.8516H7.39302C7.21047 11.1446 6.77635 10.5284 6.17201 10.1186C5.56768 9.70881 4.83463 9.53347 4.11027 9.62548C3.38591 9.71749 2.71997 10.0705 2.23728 10.6184C1.75459 11.1663 1.48828 11.8714 1.48828 12.6016C1.48828 13.3317 1.75459 14.0369 2.23728 14.5847C2.71997 15.1326 3.38591 15.4857 4.11027 15.5777C4.83463 15.6697 5.56768 15.4943 6.17201 15.0845C6.77635 14.6747 7.21047 14.0586 7.39302 13.3516H16.606C16.7473 13.8935 17.0376 14.3849 17.4441 14.7701C17.8506 15.1553 18.357 15.4188 18.9057 15.5307C19.4545 15.6426 20.0236 15.5983 20.5484 15.403C21.0733 15.2077 21.5329 14.8692 21.875 14.4258C22.2171 13.9824 22.428 13.452 22.4838 12.8947C22.5396 12.3375 22.4381 11.7758 22.1907 11.2734C21.9433 10.771 21.56 10.348 21.0843 10.0525C20.6086 9.75695 20.0595 9.60074 19.4995 9.60157ZM4.49952 14.1016C4.20285 14.1016 3.91284 14.0136 3.66616 13.8488C3.41949 13.684 3.22723 13.4497 3.1137 13.1756C3.00017 12.9015 2.97046 12.5999 3.02834 12.3089C3.08622 12.018 3.22908 11.7507 3.43886 11.5409C3.64864 11.3311 3.91591 11.1883 4.20688 11.1304C4.49785 11.0725 4.79945 11.1022 5.07354 11.2158C5.34763 11.3293 5.5819 11.5215 5.74672 11.7682C5.91154 12.0149 5.99952 12.3049 5.99952 12.6016C5.99892 12.9992 5.8407 13.3804 5.55952 13.6616C5.27835 13.9427 4.89716 14.101 4.49952 14.1016ZM19.4995 14.1016C19.2028 14.1016 18.9128 14.0136 18.6662 13.8488C18.4195 13.684 18.2272 13.4497 18.1137 13.1756C18.0002 12.9015 17.9705 12.5999 18.0283 12.3089C18.0862 12.018 18.2291 11.7507 18.4389 11.5409C18.6486 11.3311 18.9159 11.1883 19.2069 11.1304C19.4979 11.0725 19.7995 11.1022 20.0735 11.2158C20.3476 11.3293 20.5819 11.5215 20.7467 11.7682C20.9115 12.0149 20.9995 12.3049 20.9995 12.6016C20.9989 12.9992 20.8407 13.3804 20.5595 13.6616C20.2783 13.9427 19.8972 14.101 19.4995 14.1016Z"
        fill="#003E52" fill-opacity="0.6" />
    <path
        d="M14.25 4.35306C14.2517 3.94018 14.1398 3.53478 13.9264 3.18126C13.7131 2.82775 13.4066 2.53975 13.0405 2.34881C12.6744 2.15786 12.2629 2.07133 11.8509 2.0987C11.4389 2.12606 11.0424 2.26626 10.7048 2.50394C10.3672 2.74163 10.1015 3.06763 9.93675 3.44625C9.77206 3.82487 9.71472 4.24151 9.77102 4.65055C9.82731 5.05958 9.99508 5.44524 10.2559 5.76529C10.5168 6.08533 10.8607 6.32743 11.25 6.46506V9.60306H12.75V6.46506C13.1878 6.31145 13.5671 6.02582 13.8358 5.64756C14.1044 5.2693 14.2492 4.81702 14.25 4.35306Z"
        fill="#003E52" fill-opacity="0.6" />
</svg>
    