<svg width="40" height="40" viewBox="0 0 40 40" fill="none" xmlns="http://www.w3.org/2000/svg">
<rect width="40" height="40" rx="20" fill="#F2F5FE"/>
<path d="M24.8008 16.8C24.8008 14.152 22.6488 12 20.0008 12C17.3528 12 15.2008 14.152 15.2008 16.8C13.8808 16.8 12.8008 17.88 12.8008 19.2V24.8C12.8008 26.12 13.8808 27.2 15.2008 27.2H24.8008C26.1208 27.2 27.2008 26.12 27.2008 24.8V19.2C27.2008 17.88 26.1208 16.8 24.8008 16.8ZM20.0008 13.6C21.7688 13.6 23.2008 15.032 23.2008 16.8H16.8008C16.8008 15.032 18.2328 13.6 20.0008 13.6ZM25.6008 24.8C25.6008 25.24 25.2408 25.6 24.8008 25.6H15.2008C14.7608 25.6 14.4008 25.24 14.4008 24.8V19.2C14.4008 18.76 14.7608 18.4 15.2008 18.4H24.8008C25.2408 18.4 25.6008 18.76 25.6008 19.2V24.8Z" fill="black" fill-opacity="0.85"/>
<path d="M19.9992 21.5996C19.5592 21.5996 19.1992 21.9596 19.1992 22.3996V23.9996C19.1992 24.4396 19.5592 24.7996 19.9992 24.7996C20.4392 24.7996 20.7992 24.4396 20.7992 23.9996V22.3996C20.7992 21.9596 20.4392 21.5996 19.9992 21.5996Z" fill="black" fill-opacity="0.85"/>
</svg>
