<svg xmlns="http://www.w3.org/2000/svg" width="24" height="25" viewBox="0 0 24 25" fill="none">
    <path
        d="M19.8989 13.2629C19.7386 13.0804 19.6502 12.8458 19.6502 12.6029C19.6502 12.36 19.7386 12.1254 19.8989 11.9429L21.1789 10.5029C21.32 10.3456 21.4076 10.1476 21.4291 9.93743C21.4507 9.72723 21.4051 9.51561 21.2989 9.33292L19.2989 5.87292C19.1938 5.69044 19.0338 5.5458 18.8417 5.45961C18.6495 5.37342 18.4351 5.35008 18.2289 5.39292L16.3489 5.77292C16.1097 5.82235 15.8607 5.78251 15.6488 5.66092C15.4369 5.53933 15.2769 5.34441 15.1989 5.11292L14.5889 3.28292C14.5218 3.0843 14.394 2.91179 14.2235 2.78976C14.0531 2.66774 13.8486 2.60238 13.6389 2.60292H9.63892C9.42085 2.59154 9.20505 2.65185 9.02448 2.77464C8.84391 2.89742 8.7085 3.07594 8.63892 3.28292L8.07892 5.11292C8.00092 5.34441 7.84089 5.53933 7.62903 5.66092C7.41717 5.78251 7.16814 5.82235 6.92892 5.77292L4.99892 5.39292C4.80347 5.3653 4.60422 5.39614 4.42627 5.48156C4.24831 5.56698 4.09962 5.70315 3.99892 5.87292L1.99892 9.33292C1.89008 9.51357 1.84114 9.72401 1.8591 9.93415C1.87706 10.1443 1.961 10.3434 2.09892 10.5029L3.36892 11.9429C3.52924 12.1254 3.61765 12.36 3.61765 12.6029C3.61765 12.8458 3.52924 13.0804 3.36892 13.2629L2.09892 14.7029C1.961 14.8625 1.87706 15.0616 1.8591 15.2717C1.84114 15.4818 1.89008 15.6923 1.99892 15.8729L3.99892 19.3329C4.10402 19.5154 4.26404 19.66 4.45617 19.7462C4.6483 19.8324 4.86274 19.8558 5.06892 19.8129L6.94892 19.4329C7.18814 19.3835 7.43717 19.4233 7.64903 19.5449C7.86089 19.6665 8.02092 19.8614 8.09892 20.0929L8.70892 21.9229C8.7785 22.1299 8.91392 22.3084 9.09449 22.4312C9.27506 22.554 9.49085 22.6143 9.70892 22.6029H13.7089C13.9186 22.6035 14.1231 22.5381 14.2935 22.4161C14.464 22.2941 14.5918 22.1215 14.6589 21.9229L15.2689 20.0929C15.3469 19.8614 15.5069 19.6665 15.7188 19.5449C15.9307 19.4233 16.1797 19.3835 16.4189 19.4329L18.2989 19.8129C18.5051 19.8558 18.7195 19.8324 18.9117 19.7462C19.1038 19.66 19.2638 19.5154 19.3689 19.3329L21.3689 15.8729C21.4751 15.6902 21.5207 15.4786 21.4991 15.2684C21.4776 15.0582 21.39 14.8603 21.2489 14.7029L19.8989 13.2629ZM18.4089 14.6029L19.2089 15.5029L17.9289 17.7229L16.7489 17.4829C16.0287 17.3357 15.2795 17.458 14.6435 17.8267C14.0075 18.1954 13.5291 18.7848 13.2989 19.4829L12.9189 20.6029H10.3589L9.99892 19.4629C9.76877 18.7648 9.2903 18.1754 8.65432 17.8067C8.01835 17.438 7.26914 17.3157 6.54892 17.4629L5.36892 17.7029L4.06892 15.4929L4.86892 14.5929C5.36087 14.0429 5.63285 13.3309 5.63285 12.5929C5.63285 11.855 5.36087 11.1429 4.86892 10.5929L4.06892 9.69292L5.34892 7.49292L6.52892 7.73292C7.24914 7.88014 7.99835 7.7578 8.63432 7.38912C9.2703 7.02044 9.74877 6.43108 9.97892 5.73292L10.3589 4.60292H12.9189L13.2989 5.74292C13.5291 6.44108 14.0075 7.03044 14.6435 7.39912C15.2795 7.7678 16.0287 7.89014 16.7489 7.74292L17.9289 7.50292L19.2089 9.72292L18.4089 10.6229C17.9225 11.1717 17.6539 11.8796 17.6539 12.6129C17.6539 13.3462 17.9225 14.0542 18.4089 14.6029ZM11.6389 8.60292C10.8478 8.60292 10.0744 8.83752 9.41664 9.27704C8.75884 9.71657 8.24615 10.3413 7.9434 11.0722C7.64065 11.8031 7.56144 12.6074 7.71578 13.3833C7.87012 14.1592 8.25108 14.8719 8.81049 15.4313C9.3699 15.9908 10.0826 16.3717 10.8586 16.5261C11.6345 16.6804 12.4387 16.6012 13.1697 16.2984C13.9006 15.9957 14.5253 15.483 14.9648 14.8252C15.4043 14.1674 15.6389 13.394 15.6389 12.6029C15.6389 11.5421 15.2175 10.5246 14.4673 9.7745C13.7172 9.02435 12.6998 8.60292 11.6389 8.60292ZM11.6389 14.6029C11.2434 14.6029 10.8567 14.4856 10.5278 14.2659C10.1989 14.0461 9.94254 13.7337 9.79116 13.3683C9.63979 13.0028 9.60018 12.6007 9.67735 12.2127C9.75452 11.8248 9.945 11.4684 10.2247 11.1887C10.5044 10.909 10.8608 10.7185 11.2487 10.6414C11.6367 10.5642 12.0388 10.6038 12.4043 10.7552C12.7697 10.9065 13.0821 11.1629 13.3019 11.4918C13.5216 11.8207 13.6389 12.2074 13.6389 12.6029C13.6389 13.1334 13.4282 13.6421 13.0531 14.0171C12.6781 14.3922 12.1694 14.6029 11.6389 14.6029Z"
        fill="rgba(0, 62, 82, 0.60)" />
</svg>