<svg width="40" height="40" viewBox="0 0 40 40" fill="none" xmlns="http://www.w3.org/2000/svg">
<rect width="40" height="40" rx="20" fill="#F2F5FE"/>
<path d="M19.4443 28.0624H13.6892C13.0939 28.0624 12.5977 27.5663 12.5977 26.9709C12.5977 23.25 15.6241 20.2236 19.2954 20.2236H19.7915C22.3714 20.0252 24.3559 17.9415 24.3559 15.312C24.3559 12.5833 22.1729 10.4004 19.4443 10.4004C16.7156 10.4004 14.5326 12.5833 14.5326 15.2624C14.5326 16.85 15.3264 18.2888 16.5171 19.1818C13.3419 20.3229 11.1094 23.3492 11.1094 26.9213C11.1094 28.3601 12.2505 29.5012 13.6892 29.5012H19.4443C19.8412 29.5012 20.1884 29.1539 20.1884 28.757C20.1884 28.3601 19.8412 28.0624 19.4443 28.0624ZM19.4443 11.8392C21.3295 11.8392 22.8675 13.3771 22.8675 15.2624C22.8675 17.1477 21.3295 18.6857 19.4443 18.6857C17.559 18.6857 16.021 17.1973 16.021 15.2624C16.021 13.3275 17.559 11.8392 19.4443 11.8392ZM28.7714 21.8112C28.5729 21.0671 28.0768 20.4717 27.3822 20.1244C26.6877 19.7771 25.9435 19.6779 25.1993 19.926C24.4551 20.1244 23.8598 20.6205 23.5125 21.3151C23.1652 22.0097 23.066 22.7539 23.314 23.4981C23.4629 24.0438 23.8102 24.4903 24.207 24.8376L22.1729 28.7074C22.0241 29.005 22.1233 29.4019 22.421 29.5508C22.5202 29.6004 22.6195 29.6004 22.7187 29.6004C22.9171 29.6004 23.1652 29.5012 23.2644 29.2531L23.7109 28.4097L24.604 28.8562C24.7032 28.9058 24.8024 28.9058 24.9016 28.9058C25.1001 28.9058 25.3481 28.8066 25.4474 28.5585C25.5962 28.2609 25.497 27.864 25.1993 27.7151L24.3063 27.2686L24.5543 26.7725L25.8443 27.4671C25.9435 27.5167 26.0427 27.5167 26.1419 27.5167C26.3404 27.5167 26.5884 27.4174 26.6877 27.1694C26.8365 26.8717 26.7373 26.4748 26.4396 26.326L25.1497 25.6314L25.2985 25.2841C25.5466 25.3337 25.7946 25.3833 26.0427 25.3833C26.3404 25.3833 26.5884 25.3337 26.8861 25.2345C27.6303 25.0361 28.2257 24.5399 28.5729 23.8454C28.9202 23.2996 28.9698 22.5058 28.7714 21.8112ZM27.4319 23.3988C27.2334 23.7957 26.8861 24.0438 26.4892 24.1926C26.0923 24.3415 25.6458 24.2919 25.2489 24.0934C24.852 23.895 24.604 23.5477 24.4551 23.1508C24.3063 22.7539 24.3559 22.3074 24.5543 21.9105C24.7528 21.5136 25.1001 21.2655 25.497 21.1167C25.6458 21.0671 25.7946 21.0671 25.9931 21.0671C26.2412 21.0671 26.4892 21.1167 26.7373 21.2655C27.1342 21.464 27.3822 21.8112 27.5311 22.2081C27.6799 22.5554 27.6303 23.0019 27.4319 23.3988Z" fill="black"/>
</svg>
